<svg width="338" height="307" viewBox="0 0 338 307" fill="none" xmlns="http://www.w3.org/2000/svg">
<mask id="path-1-outside-1_187_374" maskUnits="userSpaceOnUse" x="-0.5" y="0" width="339" height="307" fill="black">
<rect fill="white" x="-0.5" width="339" height="307"/>
<path fill-rule="evenodd" clip-rule="evenodd" d="M17.4663 92.7977C58.7946 92.7977 92.2977 59.2946 92.2977 17.9663C92.2977 12.8408 91.7824 7.83576 90.8008 3L310.5 3C324.307 3 335.5 14.1929 335.5 28V278.573C335.5 292.38 324.307 303.573 310.5 303.573H27.5C13.6929 303.573 2.5 292.38 2.5 278.573V91.3008C7.33576 92.2824 12.3408 92.7977 17.4663 92.7977Z"/>
</mask>
<path fill-rule="evenodd" clip-rule="evenodd" d="M17.4663 92.7977C58.7946 92.7977 92.2977 59.2946 92.2977 17.9663C92.2977 12.8408 91.7824 7.83576 90.8008 3L310.5 3C324.307 3 335.5 14.1929 335.5 28V278.573C335.5 292.38 324.307 303.573 310.5 303.573H27.5C13.6929 303.573 2.5 292.38 2.5 278.573V91.3008C7.33576 92.2824 12.3408 92.7977 17.4663 92.7977Z" fill="black" fill-opacity="0.2"/>
<path d="M90.8008 3V0.5L87.7424 0.5L88.3508 3.49733L90.8008 3ZM310.5 3V5.5V3ZM2.5 91.3008L2.99733 88.8508L0 88.2424V91.3008H2.5ZM89.7977 17.9663C89.7977 57.9139 57.4139 90.2977 17.4663 90.2977V95.2977C60.1753 95.2977 94.7977 60.6753 94.7977 17.9663H89.7977ZM88.3508 3.49733C89.2994 8.17032 89.7977 13.0088 89.7977 17.9663H94.7977C94.7977 12.6729 94.2655 7.50119 93.2509 2.50267L88.3508 3.49733ZM90.8008 5.5L310.5 5.5V0.5L90.8008 0.5V5.5ZM310.5 5.5C322.926 5.5 333 15.5736 333 28H338C338 12.8122 325.688 0.5 310.5 0.5V5.5ZM333 28V278.573H338V28H333ZM333 278.573C333 290.999 322.926 301.073 310.5 301.073V306.073C325.688 306.073 338 293.761 338 278.573H333ZM310.5 301.073H27.5V306.073H310.5V301.073ZM27.5 301.073C15.0736 301.073 5 290.999 5 278.573H0C0 293.761 12.3122 306.073 27.5 306.073V301.073ZM5 278.573V91.3008H0V278.573H5ZM17.4663 90.2977C12.5088 90.2977 7.67032 89.7994 2.99733 88.8508L2.00267 93.7509C7.00119 94.7655 12.1729 95.2977 17.4663 95.2977V90.2977Z" fill="black" mask="url(#path-1-outside-1_187_374)"/>
</svg>
